<?xml version="1.0" standalone="no"?><!DOCTYPE svg PUBLIC "-//W3C//DTD SVG 1.1//EN" "http://www.w3.org/Graphics/SVG/1.1/DTD/svg11.dtd"><svg t="1765889585042" class="icon" viewBox="0 0 1097 1024" version="1.1" xmlns="http://www.w3.org/2000/svg" p-id="23388" xmlns:xlink="http://www.w3.org/1999/xlink" width="214.2578125" height="200"><path d="M0 100.211653v895.99424a27.794107 27.794107 0 0 0 27.794107 27.794107h1041.54759a27.794107 27.794107 0 0 0 27.794107-27.794107V100.211653a27.062683 27.062683 0 0 0-27.794107-27.062683H27.794107a27.062683 27.062683 0 0 0-27.794107 27.062683z m1015.216331 852.840232H81.18805V143.365661h934.028281z" fill="#2c2c2c" p-id="23389"></path><path d="M222.352856 343.044378h652.430092V416.918188H222.352856z" fill="#2c2c2c" p-id="23390"></path><path d="M222.352856 517.123258h652.430092v73.873811H222.352856z" fill="#2c2c2c" p-id="23391"></path><path d="M222.352856 691.202139h652.430092v73.873811H222.352856z" fill="#2c2c2c" p-id="23392"></path><path d="M294.763819 0.006583a42.422584 42.422584 0 0 1 42.422585 42.422584V241.37646H251.609811V42.429167A42.422584 42.422584 0 0 1 294.763819 0.006583z" fill="#2c2c2c" p-id="23393"></path><path d="M797.983442 0.006583a42.422584 42.422584 0 0 1 42.422584 42.422584V241.37646h-85.576593V42.429167a42.422584 42.422584 0 0 1 43.154009-42.422584z" fill="#2c2c2c" p-id="23394"></path></svg>