<?xml version="1.0" standalone="no"?><!DOCTYPE svg PUBLIC "-//W3C//DTD SVG 1.1//EN" "http://www.w3.org/Graphics/SVG/1.1/DTD/svg11.dtd"><svg t="1765889653310" class="icon" viewBox="0 0 1024 1024" version="1.1" xmlns="http://www.w3.org/2000/svg" p-id="25374" xmlns:xlink="http://www.w3.org/1999/xlink" width="200" height="200"><path d="M992 64H704V32a32 32 0 0 0-64 0V64H384V32a32 32 0 0 0-64 0V64H32a32 32 0 0 0-32 32v896a32 32 0 0 0 32 32h960a32 32 0 0 0 32-32v-896a32 32 0 0 0-32-32zM320 128v32a32 32 0 0 0 64 0V128h256v32a32 32 0 0 0 64 0V128h256v128H64V128zM64 960V320h896v640z" p-id="25375" fill="#2c2c2c"></path><path d="M512 384a256 256 0 1 0 256 256 256 256 0 0 0-256-256z m0 456.96A200.96 200.96 0 1 1 712.96 640 201.6 201.6 0 0 1 512 840.96z" p-id="25376" fill="#2c2c2c"></path><path d="M608 640H512V544a32 32 0 0 0-64 0v128a32 32 0 0 0 32 32h128a32 32 0 0 0 0-64z" p-id="25377" fill="#2c2c2c"></path></svg>