<?xml version="1.0" standalone="no"?><!DOCTYPE svg PUBLIC "-//W3C//DTD SVG 1.1//EN" "http://www.w3.org/Graphics/SVG/1.1/DTD/svg11.dtd"><svg t="1765889894994" class="icon" viewBox="0 0 1024 1024" version="1.1" xmlns="http://www.w3.org/2000/svg" p-id="33400" xmlns:xlink="http://www.w3.org/1999/xlink" width="200" height="200"><path d="M925.224346 301.713646c20.394493 48.15679 30.719652 99.342566 30.719652 152.114466 0 52.761668-10.32516 103.947444-30.719652 152.114466-19.678178 46.499034-47.860031 88.280626-83.726913 124.178207-35.866882 35.887348-77.679174 64.048735-124.198673 83.726913-48.218188 20.384259-99.373265 30.709419-152.094 30.709419-52.679803 0-103.83488-10.32516-152.083767-30.709419l21.75549-51.410903c82.662675 34.915207 178.116677 34.894741 260.666788 0 39.878243-16.864086 75.714426-41.014112 106.495476-71.78493 30.770817-30.801517 54.910611-66.617234 71.78493-106.464777 17.447371-41.259706 26.298969-85.11861 26.298969-130.358977 0-45.2506-8.851599-89.099271-26.298969-130.36921-16.874319-39.868009-41.014112-75.683726-71.78493-106.454544-30.78105-30.801517-66.586534-54.951543-106.464777-71.795163-82.498946-34.864042-178.147376-34.915207-260.697487 0-39.908942 16.874319-75.745125 41.024345-106.495476 71.795163-30.770817 30.770817-54.910611 66.586534-71.78493 106.454544-17.447371 41.269939-26.298969 85.11861-26.298969 130.36921l-55.821353 0c0-52.771901 10.32516-103.957677 30.709419-152.114466 19.688411-46.529733 47.870264-88.311325 83.737146-124.178207 35.836183-35.897581 77.648474-64.048735 124.198673-83.726913 96.354512-40.799218 207.93582-40.748053 304.177767 0 46.5195 19.647479 88.331791 47.808866 124.198673 83.726913C877.364315 213.402321 905.546168 255.183913 925.224346 301.713646z" p-id="33401" fill="#2c2c2c"></path><path d="M748.31517 382.350175c16.331967 16.362666 16.383132 42.845831 0 59.198264-16.352433 16.372899-42.845831 16.3422-59.188031 0-16.362666-16.321734-16.362666-42.815131 0-59.198264C705.46934 365.997742 731.962737 365.997742 748.31517 382.350175z" p-id="33402" fill="#2c2c2c"></path><path d="M481.477846 621.281939l167.464059 0 0 55.821353-167.464059 0 0-55.821353Z" p-id="33403" fill="#2c2c2c"></path><path d="M441.313078 382.350175c16.321734 16.362666 16.383132 42.845831 0 59.198264-16.352433 16.372899-42.845831 16.3422-59.198264 0-16.352433-16.321734-16.352433-42.815131 0-59.198264C398.467247 365.997742 424.960645 365.997742 441.313078 382.350175z" p-id="33404" fill="#2c2c2c"></path><path d="M148.852166 585.200162c-90.511433 90.511433 54.378491 238.154052 55.852052 239.658312l8.114818 8.145517 0.030699 67.37448 83.726913 0 0-83.726913 27.915793 0c1.381463-0.194428 9.015328-4.963035 17.877159-23.331381 16.383132-33.963533 22.215978-80.974219 20.742417-107.467617-2.241041 4.14439-4.717442 9.271154-7.306406 15.451924-2.803859 9.271154-6.354731 16.188704-6.354731 16.188704l-51.43137-21.315468c0 0 2.322905-6.999414 6.324032-16.536628 4.062526-13.221116 10.110265-43.940768-4.819772-73.780377-23.034623-46.069245-45.38363-67.517743-70.321602-67.517743C207.293183 538.342971 179.51042 554.531676 148.852166 585.200162zM400.043139 629.458155c32.264844 32.275077 18.890232 125.518738-2.701528 177.62549-13.517875 32.653701-29.67588 49.712215-44.943608 58.113559l0 91.00262-195.369619 0 0-100.355639c-64.079434-68.622914-147.263995-210.494085-47.645137-310.112943 42.518373-42.518373 81.711-63.209624 119.818923-63.209624 71.058382 0 108.091834 74.02597 120.248711 98.370425 5.945409 11.911284 9.844206 23.76117 12.218276 35.211966C371.799888 614.528118 385.317763 614.743012 400.043139 629.458155z" p-id="33405" fill="#2c2c2c"></path></svg>