<?xml version="1.0" standalone="no"?><!DOCTYPE svg PUBLIC "-//W3C//DTD SVG 1.1//EN" "http://www.w3.org/Graphics/SVG/1.1/DTD/svg11.dtd"><svg t="1765890437429" class="icon" viewBox="0 0 1024 1024" version="1.1" xmlns="http://www.w3.org/2000/svg" p-id="41474" xmlns:xlink="http://www.w3.org/1999/xlink" width="200" height="200"><path d="M532.714667 48.042667l384 213.333333A42.666667 42.666667 0 0 1 938.666667 298.666667v426.666666a42.666667 42.666667 0 0 1-21.952 37.290667l-384 213.333333a42.666667 42.666667 0 0 1-41.429334 0l-384-213.333333A42.666667 42.666667 0 0 1 85.333333 725.333333V298.666667a42.666667 42.666667 0 0 1 21.952-37.290667l384-213.333333a42.666667 42.666667 0 0 1 41.429334 0zM170.666667 323.776v376.448l341.333333 189.653333 341.333333-189.653333V323.776l-341.333333-189.653333-341.333333 189.653333zM512 704a192 192 0 1 1 0-384 192 192 0 0 1 0 384z m0-85.333333a106.666667 106.666667 0 1 0 0-213.333334 106.666667 106.666667 0 0 0 0 213.333334z" fill="#000000" p-id="41475"></path></svg>