<?xml version="1.0" standalone="no"?><!DOCTYPE svg PUBLIC "-//W3C//DTD SVG 1.1//EN" "http://www.w3.org/Graphics/SVG/1.1/DTD/svg11.dtd"><svg t="1765889837760" class="icon" viewBox="0 0 1024 1024" version="1.1" xmlns="http://www.w3.org/2000/svg" p-id="31349" xmlns:xlink="http://www.w3.org/1999/xlink" width="200" height="200"><path d="M877.8 96.1h-735c-44 0-79.8 35.8-79.8 79.8v553.8c0 44 35.8 79.8 79.8 79.8h735c44 0 79.8-35.8 79.8-79.8V175.9c-0.1-44-35.8-79.8-79.8-79.8z m9.7 633.6c0 5.4-4.4 9.8-9.8 9.8h-735c-5.4 0-9.8-4.4-9.8-9.8V175.9c0-5.4 4.4-9.8 9.8-9.8h735c5.4 0 9.8 4.4 9.8 9.8v553.8zM842.7 871.3L176.5 865c-19.3-0.2-35.1 15.3-35.3 34.7-0.2 19.3 15.3 35.1 34.7 35.3l666.3 6.3c19.3 0.2 35.1-15.3 35.3-34.7 0.1-19.3-15.4-35.1-34.8-35.3z" p-id="31350" fill="#2c2c2c"></path><path d="M540.8 552.1H366.6V447.9h107.2V238.5H206.4v209.4h90.2v174.2h244.2v69.7h267.4V482.4H540.8v69.7zM276.4 308.5h127.4v69.4H276.4v-69.4z m334.4 243.9h127.4v69.4H610.8v-69.4z" p-id="31351" fill="#2c2c2c"></path></svg>