<?xml version="1.0" standalone="no"?><!DOCTYPE svg PUBLIC "-//W3C//DTD SVG 1.1//EN" "http://www.w3.org/Graphics/SVG/1.1/DTD/svg11.dtd"><svg t="1766062160622" class="icon" viewBox="0 0 1024 1024" version="1.1" xmlns="http://www.w3.org/2000/svg" p-id="10029" xmlns:xlink="http://www.w3.org/1999/xlink" width="200" height="200"><path d="M807.808 27.008l-0.128 207.36v130.474667c0 59.008-27.050667 108.117333-73.002667 144l-72.32 57.514666 157.354667 118.528a186.538667 186.538667 0 0 1 71.552 137.344l0.298667 10.24v154.624a34.688 34.688 0 0 1-56.448 26.965334l-396.330667-290.048a34.432 34.432 0 0 1-23.381333-28.416 33.28 33.28 0 0 1-0.682667-6.741334v-239.402666c0-14.165333 7.978667-25.258667 18.816-30.848l238.805333-184.234667H347.050667a13.226667 13.226667 0 0 0-12.672 10.794667l-0.341334 3.242666v577.109334H129.792V182.144c0-85.504 67.968-155.136 152.192-155.136h525.824zM484.053333 521.813333v150.442667l338.133334 242.304V832.426667c0-34.005333-13.866667-64.896-39.168-87.808l-6.570667-5.546667-292.437333-217.258667z m263.978667-435.072H281.984c-50.901333 0-92.458667 42.581333-92.458667 95.402667v583.594667h84.778667V248.405333c0-38.4 29.098667-70.229333 66.432-73.472l6.314667-0.256h400.896l0.085333-87.893333z m-9.685333 185.557334l-231.424 177.066666 98.133333 73.984 86.698667-68.949333c27.093333-21.162667 43.861333-46.421333 46.293333-80.896l0.298667-8.661333v-92.586667z" p-id="10030" fill="#2c2c2c"></path></svg>