<?xml version="1.0" standalone="no"?><!DOCTYPE svg PUBLIC "-//W3C//DTD SVG 1.1//EN" "http://www.w3.org/Graphics/SVG/1.1/DTD/svg11.dtd"><svg t="1765889772038" class="icon" viewBox="0 0 1024 1024" version="1.1" xmlns="http://www.w3.org/2000/svg" p-id="29351" xmlns:xlink="http://www.w3.org/1999/xlink" width="200" height="200"><path d="M591.36 102.4a79.36 79.36 0 0 1 79.0528 72.1408l0.3072 7.2192L670.6688 256h135.2192a79.36 79.36 0 0 1 79.0528 72.1408l0.3072 7.2192v488.2432a79.36 79.36 0 0 1-79.36 79.36H79.36A79.36 79.36 0 0 1 0 823.6032V335.36C0 291.5328 35.5328 256 79.36 256h125.3888L204.8 181.76a79.36 79.36 0 0 1 72.1408-79.0528L284.16 102.4h307.2z m214.528 209.92H79.36a23.04 23.04 0 0 0-23.04 23.04v488.2432c0 12.6976 10.2912 23.04 23.04 23.04h726.528a23.04 23.04 0 0 0 23.04-23.04V335.36a23.04 23.04 0 0 0-23.04-23.04z m-264.8064 180.1216a28.16 28.16 0 0 1 4.608 55.9616l-4.608 0.3584H333.824a28.16 28.16 0 0 1-4.5568-55.9616l4.608-0.3584h207.2064zM591.36 158.72h-307.2a23.04 23.04 0 0 0-22.6816 18.944l-0.3584 4.096L261.0688 256h353.28L614.4 181.76a23.04 23.04 0 0 0-18.944-22.6816l-4.096-0.3584z" fill="#2c2c2c" p-id="29352"></path></svg>