<?xml version="1.0" standalone="no"?><!DOCTYPE svg PUBLIC "-//W3C//DTD SVG 1.1//EN" "http://www.w3.org/Graphics/SVG/1.1/DTD/svg11.dtd"><svg t="1765895336064" class="icon" viewBox="0 0 1024 1024" version="1.1" xmlns="http://www.w3.org/2000/svg" p-id="49474" xmlns:xlink="http://www.w3.org/1999/xlink" width="200" height="200"><path d="M344.576 337.0496a36.352 36.352 0 0 0-36.4032 36.4032V624.64a36.4032 36.4032 0 0 0 72.8064 0V373.4528a36.6592 36.6592 0 0 0-36.4032-36.4032zM512 253.5424a35.84 35.84 0 0 0-36.4032 36.4032V624.64a36.4032 36.4032 0 0 0 72.8064 0V289.9456a36.352 36.352 0 0 0-36.4032-36.4032zM679.424 441.856a36.352 36.352 0 0 0-36.4032 36.4032V624.64a36.4032 36.4032 0 0 0 72.8064 0V478.2592a36.6592 36.6592 0 0 0-36.4032-36.4032z" fill="#2c2c2c" p-id="49475"></path><path d="M851.7632 81.2544H172.2368A133.376 133.376 0 0 0 38.8096 214.7328v485.3248a133.376 133.376 0 0 0 133.4272 133.4784h233.0112l-24.2688 30.1056a46.6944 46.6944 0 0 0-10.7008 30.72 48.6912 48.6912 0 0 0 48.5376 48.5376h186.368a48.7936 48.7936 0 0 0 37.8368-79.104l-24.2688-30.1056h233.0112a133.376 133.376 0 0 0 133.4272-133.4784V214.7328a133.376 133.376 0 0 0-133.4272-133.4784z m60.6208 618.8032a60.672 60.672 0 0 1-60.6208 60.672h-291.2256l-10.7008-13.2096v-0.4608a34.4064 34.4064 0 0 0-7.7312-7.2704 35.84 35.84 0 0 0-9.216-5.8368 42.7008 42.7008 0 0 0-10.24-3.4304 38.0416 38.0416 0 0 0-10.7008-1.4336 43.9296 43.9296 0 0 0-11.1616 1.4336 48.2304 48.2304 0 0 0-26.624 16.9984l-10.7008 13.1072H172.2368a60.672 60.672 0 0 1-60.6208-60.5696V214.7328a60.672 60.672 0 0 1 60.6208-60.672h679.5264a60.672 60.672 0 0 1 60.6208 60.672z" fill="#2c2c2c" p-id="49476"></path></svg>