<?xml version="1.0" standalone="no"?><!DOCTYPE svg PUBLIC "-//W3C//DTD SVG 1.1//EN" "http://www.w3.org/Graphics/SVG/1.1/DTD/svg11.dtd"><svg t="1765889716513" class="icon" viewBox="0 0 1024 1024" version="1.1" xmlns="http://www.w3.org/2000/svg" p-id="27381" xmlns:xlink="http://www.w3.org/1999/xlink" width="200" height="200"><path d="M512 64a448 448 0 0 1 448 448 38.4 38.4 0 0 1-76.8 0A371.2 371.2 0 1 0 512 883.2 38.4 38.4 0 0 1 512 960 448 448 0 0 1 512 64z m410.688 821.312a37.312 37.312 0 0 1 0 74.688h-194.176a37.312 37.312 0 1 1 0-74.688h194.176z m0-149.312a37.312 37.312 0 1 1 0 74.688h-194.176a37.312 37.312 0 0 1 0-74.688h194.176zM406.144 297.408l3.328 3.328L512 417.92l102.528-117.248V300.8a37.312 37.312 0 0 1 59.072 45.44l-2.816 3.776-76.544 87.36h33.088a38.272 38.272 0 0 1 0 76.608H543.808l0.064 72.704H582.4a38.4 38.4 0 1 1 0 76.8h-38.464v34.048a38.4 38.4 0 0 1-32.064 37.888l-6.272 0.512a38.4 38.4 0 0 1-38.4-38.4v-34.048h-38.4a38.4 38.4 0 0 1 0-76.8h38.4V513.984L384 514.112a38.4 38.4 0 0 1-37.888-32.128L345.6 475.712a38.4 38.4 0 0 1 38.4-38.4h45.696L353.216 349.952a37.312 37.312 0 0 1 52.928-52.544z m516.48 289.28a37.312 37.312 0 0 1 0 74.624h-194.112a37.312 37.312 0 1 1 0-74.624h194.176z" fill="#2c2c2c" p-id="27382"></path></svg>