<?xml version="1.0" standalone="no"?><!DOCTYPE svg PUBLIC "-//W3C//DTD SVG 1.1//EN" "http://www.w3.org/Graphics/SVG/1.1/DTD/svg11.dtd"><svg t="1767512214786" class="icon" viewBox="0 0 1024 1024" version="1.1" xmlns="http://www.w3.org/2000/svg" p-id="7830" xmlns:xlink="http://www.w3.org/1999/xlink" width="200" height="200"><path d="M865.28 517.12c-13.824 0-25.6 11.264-25.6 25.6v240.128c0 30.72-25.088 55.808-55.808 55.808H247.808c-30.72 0-55.808-25.088-55.808-55.808V278.016c0-30.72 25.088-55.808 55.808-55.808h174.592c13.824 0 25.6-11.264 25.6-25.6 0-13.824-11.264-25.6-25.6-25.6H247.808c-58.88 0-107.008 48.128-107.008 107.008v504.32c0 58.88 48.128 107.008 107.008 107.008h536.064c58.88 0 107.008-48.128 107.008-107.008v-240.128c0-13.824-11.264-25.088-25.6-25.088zM332.288 665.6c-2.56 13.824 6.656 27.136 20.48 29.696 1.536 0.512 3.072 0.512 4.608 0.512 12.288 0 22.528-8.704 25.088-20.992 0-1.024 20.48-108.032 90.624-214.016 40.96-61.952 90.624-111.104 146.944-145.92 54.272-33.792 115.2-54.272 182.784-62.464L720.384 337.92c-9.728 10.24-9.728 26.112 0.512 35.84 5.12 4.608 11.264 7.168 17.92 7.168 6.656 0 13.312-2.56 18.432-7.68l128-132.096 0.512-0.512 0.512-0.512 0.512-0.512 0.512-0.512 0.512-0.512 0.512-0.512 0.512-0.512s0-0.512 0.512-0.512 0-0.512 0.512-0.512c0 0 0-0.512 0.512-0.512 0-0.512 0.512-0.512 0.512-0.512s0-0.512 0.512-0.512c0 0 0-0.512 0.512-0.512 0 0 0-0.512 0.512-0.512 0-0.512 0-0.512 0.512-0.512 0 0 0-0.512 0.512-0.512 0 0 0-0.512 0.512-0.512 0 0 0-0.512 0.512-0.512v-0.512-0.512-0.512-0.512-0.512-0.512-1.024-6.144V220.16 218.624v-0.512-0.512-0.512-1.024-0.512c0-0.512 0-0.512-0.512-1.024 0-0.512 0-0.512-0.512-0.512v-0.512c0-0.512 0-0.512-0.512-0.512v-0.512c0-0.512-0.512-0.512-0.512-0.512-0.512-0.512-0.512-1.024-1.024-1.536 0-0.512-0.512-0.512-0.512-1.024l-0.512-0.512v-0.512l-0.512-0.512v-0.512-0.512-0.512l-0.512-0.512-0.512-0.512-0.512-0.512-1.024-1.024-1.024-1.024-1.024-1.024c-0.512-0.512-0.512-0.512-1.024-0.512s-0.512-0.512-1.024-0.512h-0.512s-0.512 0-0.512-0.512h-0.512s-0.512 0-0.512-0.512h-0.512-0.512s-0.512 0-0.512-0.512c-0.512 0-0.512-0.512-0.512-0.512s-0.512 0-0.512-0.512c-0.512 0-0.512 0-0.512-0.512 0 0-0.512 0-0.512-0.512 0 0-0.512 0-0.512-0.512-0.512 0-0.512 0-0.512-0.512h-0.512-0.512l-186.88-61.952c-13.312-4.608-27.648 3.072-32.256 15.872-4.608 13.312 3.072 27.648 15.872 32.256l74.752 25.088c-55.296 11.776-106.496 32.256-153.088 61.44-62.976 38.912-117.76 93.184-162.816 161.28-76.8 117.76-98.304 230.912-98.816 235.52z" p-id="7831" fill="#2c2c2c"></path></svg>