<?xml version="1.0" standalone="no"?><!DOCTYPE svg PUBLIC "-//W3C//DTD SVG 1.1//EN" "http://www.w3.org/Graphics/SVG/1.1/DTD/svg11.dtd"><svg t="1767511852944" class="icon" viewBox="0 0 1024 1024" version="1.1" xmlns="http://www.w3.org/2000/svg" p-id="4572" xmlns:xlink="http://www.w3.org/1999/xlink" width="200" height="200"><path d="M396.994198 532.36584 106.824469 532.36584c-23.476691 0-42.575678-19.10001-42.575678-42.575678L64.248791 198.335161c0-23.475667 19.10001-42.575678 42.575678-42.575678l290.169729 0c23.476691 0 42.576701 19.10001 42.576701 42.575678l0 291.455002C439.570899 513.266853 420.470889 532.36584 396.994198 532.36584zM106.824469 194.645119c-2.035356 0-3.690042 1.655709-3.690042 3.690042l0 291.455002c0 2.035356 1.655709 3.691065 3.690042 3.691065l290.169729 0c2.035356 0 3.691065-1.655709 3.691065-3.691065L400.685263 198.335161c0-2.034333-1.655709-3.690042-3.691065-3.690042L106.824469 194.645119zM732.725612 557.75202c-11.373025 0-22.065552-4.428869-30.106692-12.472056L496.530169 339.190189c-8.04114-8.039093-12.471033-18.73162-12.471033-30.104645 0-11.373025 4.428869-22.064528 12.471033-30.106692L701.710224 73.797773c8.042163-8.04114 18.735713-12.471033 30.107715-12.471033 11.374048 0 22.065552 4.429893 30.106692 12.472056L968.013383 279.887548c16.600073 16.60212 16.59905 43.612287 0.001023 60.211337L762.830257 545.282011C754.791164 553.322128 744.098637 557.75202 732.725612 557.75202zM731.816916 100.213399c-0.697895 0-1.717108 0.188288-2.611477 1.081635L524.027429 306.47509c-0.89437 0.89437-1.082658 1.912559-1.082658 2.609431s0.188288 1.715061 1.080611 2.607384l206.090798 206.091822c0.893346 0.89437 1.911536 1.081635 2.609431 1.081635 0.696872 0 1.715061-0.188288 2.607384-1.080611l205.185172-205.182103c1.437745-1.438769 1.437745-3.781116-0.002047-5.220908L734.426347 101.295034C733.531977 100.400664 732.514811 100.213399 731.816916 100.213399zM396.994198 962.332499 106.824469 962.332499c-23.476691 0-42.575678-19.10001-42.575678-42.576701L64.248791 628.300796c0-23.476691 19.10001-42.576701 42.575678-42.576701l290.169729 0c23.476691 0 42.576701 19.10001 42.576701 42.576701l0 291.453978C439.570899 943.232488 420.470889 962.332499 396.994198 962.332499zM106.824469 624.609731c-2.035356 0-3.690042 1.655709-3.690042 3.691065l0 291.453978c0 2.035356 1.655709 3.691065 3.690042 3.691065l290.169729 0c2.035356 0 3.691065-1.655709 3.691065-3.691065L400.685263 628.300796c0-2.035356-1.655709-3.691065-3.691065-3.691065L106.824469 624.609731zM817.51574 962.332499 527.346011 962.332499c-23.475667 0-42.574654-19.10001-42.574654-42.576701L484.771357 628.300796c0-23.476691 19.098987-42.576701 42.574654-42.576701l290.170752 0c23.476691 0 42.575678 19.10001 42.575678 42.576701l0 291.453978C860.092441 943.232488 840.993454 962.332499 817.51574 962.332499zM527.346011 624.609731c-2.034333 0-3.689019 1.655709-3.689019 3.691065l0 291.453978c0 2.035356 1.654686 3.691065 3.689019 3.691065l290.170752 0c2.034333 0 3.690042-1.655709 3.690042-3.691065L821.206806 628.300796c0-2.035356-1.655709-3.691065-3.690042-3.691065L527.346011 624.609731z" fill="#2c2c2c" p-id="4573"></path></svg>