<?xml version="1.0" standalone="no"?><!DOCTYPE svg PUBLIC "-//W3C//DTD SVG 1.1//EN" "http://www.w3.org/Graphics/SVG/1.1/DTD/svg11.dtd"><svg t="1769330722816" class="icon" viewBox="0 0 1024 1024" version="1.1" xmlns="http://www.w3.org/2000/svg" p-id="8171" xmlns:xlink="http://www.w3.org/1999/xlink" width="200" height="200"><path d="M327.847411 1007.258856l0-739.400545c-54.408719 36.27248-89.286104 53.013624-138.114441 55.803815 82.310627-80.915531 125.558583-186.942779 166.016349-313.896458 39.06267 126.953678 86.495913 227.400545 166.016349 313.896458-51.618529-5.580381-83.705722-20.926431-140.904632-55.803815l0 740.79564L327.847411 1008.653951z" fill="#2c2c2c" p-id="8172"></path><path d="M661.275204 9.765668l0 739.400545c-54.408719-36.27248-89.286104-53.013624-138.114441-55.803815 82.310627 80.915531 125.558583 186.942779 166.016349 313.896458 39.06267-126.953678 86.495913-227.400545 166.016349-313.896458-51.618529 5.580381-83.705722 20.926431-140.904632 55.803815L714.288828 9.765668 661.275204 9.765668z" fill="#2c2c2c" p-id="8173"></path></svg>