<?xml version="1.0" standalone="no"?><!DOCTYPE svg PUBLIC "-//W3C//DTD SVG 1.1//EN" "http://www.w3.org/Graphics/SVG/1.1/DTD/svg11.dtd"><svg t="1765890347624" class="icon" viewBox="0 0 1042 1024" version="1.1" xmlns="http://www.w3.org/2000/svg" p-id="39542" xmlns:xlink="http://www.w3.org/1999/xlink" width="203.515625" height="200"><path d="M583.492 983.655l-0.504-0.504c-17.646-13.612-25.208-39.325-17.142-59.997 0.504-2.017 1.008-4.538 1.513-7.059 1.008-3.529 2.016-8.57 2.016-11.596v-1.512c0-25.21-20.67-45.376-45.375-45.376h-3.53c-18.654-0.504-36.3-17.142-40.839-38.822-7.058-14.622-7.058-55.964-7.058-56.47 0-18.653 4.537-37.308 6.554-47.391 0.504-2.017 1.01-4.538 1.01-5.547v-1.512c4.536-22.184 23.191-39.327 41.846-39.327h5.042c25.209 0 45.375-20.166 45.375-45.375 0-6.05-1.008-12.605-2.52-18.15-8.066-21.177 0-47.393 18.15-60.502l0.504-0.504 67.057-34.285c5.546-4.537 11.595-5.042 17.141-5.042h3.025c14.118 0 27.226 6.05 37.814 16.638 2.017 1.513 4.034 3.026 6.555 4.538 8.57 6.554 24.705 18.15 32.772 18.15 8.57 0 25.712-12.1 34.787-20.67 11.597-16.135 32.773-17.143 38.823-17.143l21.176 0.504 66.047 37.814 0.504 0.504c17.646 13.613 25.21 39.326 17.142 59.997-0.504 2.017-1.008 4.538-1.512 7.059-1.01 3.529-2.017 8.57-2.017 11.596v1.513c0 25.209 20.672 45.375 45.376 45.375h3.53c19.158 0 37.31 18.15 41.342 40.335v2.017c0 3.025 3.025 29.747 9.075 45.88l0.505 2.017v2.017c-0.505 25.713-7.563 53.947-8.067 55.459-4.538 21.68-22.689 38.823-41.848 38.823h-5.041c-25.21 0-45.376 20.166-45.376 45.375 0 6.05 1.008 12.605 2.52 18.151 8.068 21.176 0 47.393-18.15 60.501l-0.504 0.504-64.535 34.79c-8.067 4.033-13.11 4.537-19.663 4.537h-3.025c-14.117 0-27.73-6.05-38.822-17.647l-0.505-0.504-0.504-1.008c-6.05-9.075-27.73-24.2-37.31-24.2-6.05 0-17.645 4.032-38.317 24.2-11.596 16.134-32.772 17.142-38.822 17.142h-3.53c-4.032 0-6.05 0-10.586 2.521l-5.042 2.521-67.057-40.335z m165.372-72.6c21.68 0.503 41.342 7.561 65.04 23.695l1.007 0.504 13.11 13.11 31.763-16.64c-2.521-8.066-4.538-18.654-4.034-27.225 0.505-57.476 38.822-102.853 93.778-112.936 0-1.009 0-2.017 0.504-3.53 1.008-7.562 1.513-15.125 0-20.166l-0.504-1.513v-1.512c0-7.563-1.008-15.126-2.017-22.184 0-1.513-0.504-3.025-0.504-4.538-52.94-11.596-91.761-59.998-90.752-115.457 0-8.572 2.016-19.16 5.04-27.226l-31.762-17.647c-0.504 0.504-1.01 0.504-1.01 1.01-3.024 2.015-7.057 4.536-10.586 8.065l-0.505 0.505-1.008 0.504c-23.697 15.125-42.352 22.184-61.005 22.184h-1.01c-19.158-0.504-37.813-7.563-61.005-23.193-5.546-3.025-10.084-7.058-14.117-10.587l-31.763 16.638c2.52 8.067 4.538 18.15 4.033 27.226-0.504 57.476-38.822 102.852-93.777 113.44l-1.513 10.588c-1.008 5.546-2.016 11.597-2.016 16.134 0 7.563 1.008 15.125 2.016 22.183 0 1.513 0.505 3.025 0.505 4.538 52.939 11.596 91.76 59.998 90.752 115.457 0 8.572-2.52 19.16-5.042 27.226l26.721 16.134c2.017-2.016 4.538-4.033 6.554-5.546 2.017-2.016 4.538-3.53 6.555-5.546l0.504-0.504 1.008-0.504c21.68-14.117 44.873-22.184 65.04-22.184v-0.504z m-619.637 88.734C58.137 999.79 0.156 941.81 0.156 870.72v-3.024c2.521-179.993 113.44-337.297 282.845-401.833h-0.504l-0.504-0.504c-63.527-53.443-97.81-127.053-96.803-207.218 1.01-68.569 28.739-133.608 77.644-182.513C311.236 26.722 374.258 0 440.306 0h3.025c71.089 1.008 137.136 29.243 186.547 79.156C679.288 129.07 705.504 194.613 705 264.19c-1.008 79.157-38.318 153.775-101.844 204.698l-14.117 10.587c-37.31 31.764-103.862 40.335-140.666 42.856h-1.008l-49.41-0.504C224.517 529.389 75.783 688.205 73.766 868.703v1.513c0 25.208 31.26 56.467 56.47 56.467l322.675 4.034c11.595 0 21.68 3.529 28.233 10.588 6.554 6.554 9.58 16.134 9.58 27.73-0.505 21.68-15.63 35.292-38.822 35.292l-322.675-4.538zM447.869 74.114c-102.35 0-187.052 83.19-188.06 185.034-1.009 49.41 18.15 96.804 53.443 133.104 35.293 36.3 82.181 56.469 131.592 56.973h3.025c101.339 0 185.034-83.19 187.05-185.035 1.009-49.41-18.15-96.803-53.443-133.103-35.292-36.3-82.18-56.468-131.591-56.973h-2.016z m305.029 799.127c-7.563 0-15.63-1.009-23.193-2.52-42.35-8.067-77.14-43.864-84.198-86.72-6.05-32.771 2.52-66.047 23.192-90.752 20.167-24.2 49.41-38.318 80.165-38.318 7.563 0 15.63 1.009 23.192 2.52 43.36 8.572 77.14 44.873 84.199 90.25 6.05 30.25-2.017 62.013-22.184 86.719-20.672 24.704-49.915 38.821-81.173 38.821z m-2.521-146.716c-18.655 0-35.293 16.638-35.797 35.293 0 19.158 16.134 35.796 35.293 36.3h0.504c19.158 0 35.292-16.134 35.796-35.292 0-9.075-3.53-18.15-10.588-25.21-6.554-7.058-15.63-11.091-25.21-11.091z" p-id="39543" fill="#2c2c2c"></path></svg>